<svg height="512pt" viewBox="-28 0 512 512" width="512pt" xmlns="http://www.w3.org/2000/svg"><path d="m186.476562 331.714844h-39.894531l-26.796875 23.871094v97.539062l26.796875 23.867188h39.894531l26.796876-23.867188v-97.539062zm-2.316406 102.679687-7.773437 8.230469h-19.714844l-7.777344-8.230469v-58.710937l9.832031-9.601563h15.605469l9.828125 9.601563zm0 0" fill="#ffe477"/><path d="m309.476562 331.714844h-39.898437l-26.796875 23.871094v97.539062l26.796875 23.867188h39.898437l26.796876-23.867188v-97.539062zm-2.316406 102.679687-7.773437 8.230469h-19.71875l-7.773438-8.230469v-58.710937l9.828125-9.601563h15.609375l9.828125 9.601563zm0 0" fill="#ffe477"/><g fill="#ffda44"><path d="m181.527344 437.183594 5.144531 5.441406h19.714844l6.886719-7.289062v-60.519532l-8.941407-8.734375h-15.605469l-7.199218 7.03125 2.632812 2.570313v58.710937zm0 0"/><path d="m149.785156 435.335938-.886718-.941407v-58.710937l.886718-.867188v-19.230468l26.796875-23.871094h-30l-26.796875 23.871094v97.539062l26.796875 23.867188h30l-26.796875-23.867188zm0 0"/><path d="m304.527344 437.183594 5.140625 5.441406h19.71875l6.886719-7.289062v-60.519532l-8.941407-8.734375h-15.609375l-7.195312 7.03125 2.632812 2.570313v58.710937zm0 0"/><path d="m272.78125 435.335938-.886719-.941407v-58.710937l.886719-.867188v-19.230468l26.796875-23.871094h-30l-26.796875 23.871094v97.539062l26.796875 23.867188h30l-26.796875-23.867188zm0 0"/></g><path d="m322.886719 102.355469v79.445312c-23.265625 23.265625-36.304688 36.304688-59.570313 59.570313h-70.578125c-23.261719-23.265625-36.304687-36.304688-59.566406-59.570313v-79.445312c0-52.386719 42.46875-94.855469 94.855469-94.855469 52.390625 0 94.859375 42.46875 94.859375 94.855469zm0 0" fill="#ffdaaa"/><path d="m448.554688 318.890625-44.332032-44.332031h-113.949218v-60.144532c-8.160157 8.160157-16.53125 16.53125-26.957032 26.957032h-70.578125l-26.957031-26.957032v60.144532h-113.945312c-17.316407 17.3125-27.023438 27.019531-44.335938 44.332031v185.609375h441.054688zm0 0" fill="#ffdaaa"/><path d="m404.222656 274.558594h-113.949218v-.574219c-14.378907 14.378906-6.246094 6.242187-26.957032 26.953125h-70.578125c-21.167969-21.167969-11.363281-11.363281-26.957031-26.953125v.574219h-113.945312c-17.316407 17.3125-27.023438 27.019531-44.335938 44.332031v185.609375h441.054688v-185.609375zm0 0" fill="#fff"/><path d="m81.835938 274.558594h-30c-17.316407 17.3125-27.023438 27.019531-44.335938 44.332031v185.609375h30v-185.609375c17.3125-17.3125 27.019531-27.019531 44.335938-44.332031zm0 0" fill="#dedddf"/><path d="m186.476562 331.714844h-39.894531l-26.796875 23.871094v97.539062l26.796875 23.867188h39.894531l26.796876-23.867188v-97.539062zm-2.316406 102.679687-7.773437 8.230469h-19.714844l-7.777344-8.230469v-58.710937l9.832031-9.601563h15.605469l9.828125 9.601563zm0 0" fill="#ff3f62"/><path d="m309.476562 331.714844h-39.898437l-26.796875 23.871094v97.539062l26.796875 23.867188h39.898437l26.796876-23.867188v-97.539062zm-2.316406 102.679687-7.773437 8.230469h-19.71875l-7.773438-8.230469v-58.710937l9.828125-9.601563h15.609375l9.828125 9.601563zm0 0" fill="#ff3f62"/><path d="m7.5 396.90625h76.851562v38.273438h-76.851562zm0 0" fill="#57a4ff"/><path d="m7.5 466.230469h76.851562v38.269531h-76.851562zm0 0" fill="#57a4ff"/><path d="m370.78125 396.90625h76.851562v38.273438h-76.851562zm0 0" fill="#57a4ff"/><path d="m370.78125 466.230469h76.851562v38.269531h-76.851562zm0 0" fill="#57a4ff"/><path d="m163.171875 181.804688v-79.449219c0-47.28125 34.597656-86.480469 79.855469-93.671875-4.882813-.777344-9.894532-1.183594-15-1.183594-52.386719 0-94.855469 42.46875-94.855469 94.855469v79.445312c23.261719 23.265625 36.304687 36.304688 59.566406 59.570313h30c-23.261719-23.261719-36.304687-36.304688-59.566406-59.566406zm0 0" fill="#ff9478"/><path d="m195.78125 241.371094h-3.042969l-26.957031-26.957032v60.144532l27.03125 27.4375h30.40625l-27.4375-27.4375zm0 0" fill="#ff9478"/><path d="m149.785156 355.585938 26.796875-23.871094h-30l-26.796875 23.871094v97.539062l26.796875 23.867188h30l-26.796875-23.867188zm0 0" fill="#c70024"/><path d="m272.78125 355.585938 26.796875-23.871094h-30l-26.796875 23.871094v97.539062l26.796875 23.867188h30l-26.796875-23.867188zm0 0" fill="#c70024"/><path d="m7.5 396.90625h30v38.273438h-30zm0 0" fill="#2488ff"/><path d="m7.5 466.230469h30v38.269531h-30zm0 0" fill="#2488ff"/><path d="m370.78125 396.90625h30v38.273438h-30zm0 0" fill="#2488ff"/><path d="m370.78125 466.230469h30v38.269531h-30zm0 0" fill="#2488ff"/><path d="m143.726562 324.214844-31.441406 28.003906v104.269531l31.441406 28.003907h45.609376l31.4375-28.003907v-104.265625l-31.4375-28.007812zm62.046876 125.546875-22.152344 19.730469h-34.183594l-22.152344-19.730469v-90.816407l22.152344-19.730468h34.183594l22.152344 19.730468zm0 0"/><path d="m155.671875 358.582031-14.273437 13.945313v64.851562l12.039062 12.746094h26.183594l12.042968-12.746094v-64.851562l-14.273437-13.945313zm20.988281 72.832031-3.503906 3.710938h-13.253906l-3.507813-3.710938v-52.570312l5.386719-5.257812h9.496094l5.382812 5.257812zm0 0"/><path d="m266.722656 324.214844-31.441406 28.003906v104.269531l31.441406 28.003907h45.609375l31.4375-28.003907v-104.265625l-31.4375-28.007812zm62.046875 125.546875-22.152343 19.730469h-34.183594l-22.152344-19.730469v-90.816407l22.152344-19.730468h34.183594l22.152343 19.730468zm0 0"/><path d="m278.667969 358.582031-14.273438 13.945313v64.851562l12.039063 12.746094h26.183594l12.042968-12.746094v-64.851562l-14.273437-13.945313zm20.992187 72.832031-3.507812 3.710938h-13.253906l-3.503907-3.710938v-52.570312l5.382813-5.257812h9.496094l5.386718 5.257812zm0 0"/><path d="m456.054688 315.785156-48.726563-48.726562h-109.554687v-49.539063l32.613281-32.609375v-82.550781c0-56.441406-45.917969-102.359375-102.359375-102.359375-56.4375 0-102.355469 45.917969-102.355469 102.355469v82.554687l32.609375 32.609375v49.539063h-109.554688l-48.726562 48.726562v196.214844h456.054688c0-8.1875 0-185.6875 0-196.214844zm-315.382813-213.429687c0-48.167969 39.1875-87.355469 87.355469-87.355469 48.167968 0 87.359375 39.1875 87.359375 87.355469v76.339843l-55.175781 55.175782h-64.367188l-55.171875-55.175782zm32.609375 130.167969 16.351562 16.347656h76.792969l16.347657-16.351563v38.355469l-22.5625 22.5625h-64.367188l-22.5625-22.558594zm267.773438 226.207031h-49.351563v15h49.351563v23.269531h-61.851563v-128.105469h-15v128.105469h-272.351563v-128.105469h-15v128.105469h-61.851562v-23.269531h49.351562v-15h-49.351562v-16.050781h49.351562v-15h-49.351562v-23.273438h49.351562v-15h-49.351562v-67.40625l39.941406-39.941406h108.3125l26.378906 26.378906h76.792969l26.378907-26.378906h108.3125l39.9375 39.941406v67.40625h-49.347657v15h49.347657v23.273438h-49.347657v15h49.347657zm0 0"/><path d="m271.761719 57.96875c-11.757813-11.585938-27.289063-17.96875-43.734375-17.96875-1.292969 0-2.597656.039062-3.882813.121094l-.925781-14.972656c1.589844-.097657 3.207031-.148438 4.808594-.148438 20.410156 0 39.683594 7.914062 54.265625 22.285156zm-87.46875 0-10.527344-10.683594c3.9375-3.882812 8.300781-7.351562 12.964844-10.308594l8.03125 12.667969c-3.765625 2.386719-7.285157 5.1875-10.46875 8.324219zm18.324219-12.546875-6.140626-13.6875c5.050782-2.265625 10.363282-3.988281 15.777344-5.117187l3.058594 14.6875c-4.359375.90625-8.628906 2.292968-12.695312 4.117187zm0 0" fill="#fff"/></svg>